<?xml version="1.0" standalone="no"?>
<!DOCTYPE svg PUBLIC "-//W3C//DTD SVG 1.1//EN" "http://www.w3.org/Graphics/SVG/1.1/DTD/svg11.dtd" >
<svg xmlns="http://www.w3.org/2000/svg">
<metadata></metadata>
<defs>
<font id="flamablackregular" horiz-adv-x="1228" >
<font-face units-per-em="2048" ascent="1638" descent="-410" />
<missing-glyph horiz-adv-x="491" />
<glyph horiz-adv-x="2048" />
<glyph horiz-adv-x="2048" />
<glyph unicode="&#xd;" horiz-adv-x="2048" />
<glyph unicode=" "  horiz-adv-x="491" />
<glyph unicode="&#x09;" horiz-adv-x="491" />
<glyph unicode="&#xa0;" horiz-adv-x="491" />
<glyph unicode="!" horiz-adv-x="659" d="M109 934v526h442v-526l-98 -440h-246zM119 0v397h422v-397h-422z" />
<glyph unicode="&#x22;" horiz-adv-x="1060" d="M131 1174v311h334v-311l-49 -375h-236zM596 1174v311h334v-311l-49 -375h-236z" />
<glyph unicode="#" horiz-adv-x="1304" d="M74 264l35 197h219l49 307h-236l35 195h225l41 262h195l-37 -262h219l41 262h193l-41 -262h219l-27 -195h-219l-47 -307h227l-26 -197h-232l-43 -284h-192l41 284h-219l-48 -284h-192l47 284h-227zM524 461h217l50 307h-222z" />
<glyph unicode="$" horiz-adv-x="1257" d="M51 195l201 297q78 -57 170 -96.5t178 -39.5q145 0 145 70q0 33 -19 49t-54 27q-40 10 -49 12l-215 61q-142 40 -226 136t-84 237q0 163 111 287.5t301 159.5v135h289v-133q100 -12 179 -41t171 -84l-223 -281q-53 42 -131.5 67t-141.5 25q-137 0 -137 -71 q0 -33 24.5 -47.5t65.5 -22.5q39 -8 81 -19.5t94.5 -28t80.5 -24.5q161 -44 245.5 -139t84.5 -229q0 -95 -32 -173t-89 -130.5t-124.5 -86t-147.5 -51.5v-153h-289v139q-133 10 -244 43.5t-215 104.5z" />
<glyph unicode="%" horiz-adv-x="1906" d="M78 893v319q0 72 30 127t80 85.5t107.5 45.5t120.5 15q50 0 97 -9t92.5 -30t79 -52t54.5 -79.5t21 -108.5v-313q0 -70 -31 -124t-82 -84.5t-108 -45t-117 -14.5q-62 0 -119.5 13.5t-109.5 43t-83.5 84t-31.5 127.5zM346 893q0 -25 19 -43.5t55 -18.5q35 0 53.5 20 t18.5 46v324q0 24 -20.5 40.5t-53.5 16.5q-34 0 -53 -16.5t-19 -40.5v-328zM408 -16l858 1486h233l-858 -1486h-233zM1147 248v319q0 72 30 126.5t80.5 85t108.5 45t121 14.5t120.5 -15t109 -45.5t82 -86.5t30.5 -130v-313q0 -70 -31 -124t-82 -84.5t-108 -45t-117 -14.5 q-62 0 -119.5 13.5t-109.5 43t-83.5 84t-31.5 127.5zM1415 248q0 -25 19 -43.5t55 -18.5q35 0 53.5 20t18.5 46v323q0 24 -19.5 41t-52.5 17q-34 0 -54 -17t-20 -41v-327z" />
<glyph unicode="&#x26;" horiz-adv-x="1740" d="M63 403q0 78 32.5 146.5t86.5 118t114 84t126 55.5q-54 54 -96.5 130t-42.5 138q0 194 141 302t414 108q213 0 344 -98t131 -261q0 -252 -285 -360l127 -141q4 13 11 34t12 41.5t12 61.5l328 -31q-18 -124 -44.5 -206t-72.5 -165l328 -362h-570l-90 102 q-93 -65 -218 -101t-255 -36q-143 0 -262 48.5t-195 150.5t-76 241zM510 436q0 -70 47 -120t137 -50q99 0 170 58l-266 297q-88 -58 -88 -185zM758 1114q0 -9 4 -20t9 -21.5t14.5 -25t16.5 -24t19.5 -25.5t18 -22.5t18 -21t14.5 -16.5q46 24 76.5 74.5t30.5 107.5 q0 38 -33.5 66t-75.5 28q-57 0 -84.5 -27t-27.5 -73z" />
<glyph unicode="'" horiz-adv-x="595" d="M131 1174v311h334v-311l-49 -375h-236z" />
<glyph unicode="(" horiz-adv-x="737" d="M172 623q0 265 85.5 520.5t231.5 437.5h177q-102 -270 -142.5 -477.5t-40.5 -480.5q0 -522 183 -988h-177q-141 177 -229 443t-88 545z" />
<glyph unicode=")" horiz-adv-x="737" d="M72 -365q182 463 182 988q0 274 -40 481.5t-142 476.5h176q146 -182 231.5 -437.5t85.5 -520.5q0 -279 -88 -545t-229 -443h-176z" />
<glyph unicode="*" horiz-adv-x="950" d="M63 1235l101 158l211 -111v217h200v-217l209 111l103 -158l-244 -129l162 -219l-168 -103l-162 222l-164 -222l-164 103l158 219z" />
<glyph unicode="+" horiz-adv-x="1232" d="M94 541v213h416v415h215v-415h414v-213h-414v-414h-215v414h-416z" />
<glyph unicode="," horiz-adv-x="626" d="M102 0v395h422v-370l-157 -314h-193l74 289h-146z" />
<glyph unicode="-" horiz-adv-x="741" d="M55 449v272h631v-272h-631z" />
<glyph unicode="." horiz-adv-x="626" d="M102 0v397h422v-397h-422z" />
<glyph unicode="/" horiz-adv-x="757" d="M2 -72l508 1559h233l-501 -1559h-240z" />
<glyph unicode="0" horiz-adv-x="1314" d="M66 444v566q0 101 34.5 183t91.5 135.5t134 89.5t158.5 51.5t168.5 15.5q86 0 167.5 -15.5t160.5 -52.5t137.5 -91t94.5 -138.5t36 -188.5v-555q0 -99 -36 -180.5t-95 -134t-136.5 -88t-157.5 -51t-162 -15.5q-85 0 -165.5 14t-160 48.5t-138.5 86.5t-95.5 134.5 t-36.5 185.5zM522 444q0 -48 36 -82t101 -34t99.5 37.5t34.5 85.5v575q0 45 -38 76t-98 31q-61 0 -98 -31.5t-37 -77.5v-580z" />
<glyph unicode="1" horiz-adv-x="1101" d="M121 0v299h250v795l-246 -9v304l450 90h222v-1180h225v-299h-901z" />
<glyph unicode="2" horiz-adv-x="1253" d="M80 946v88q0 145 74 247.5t199 151t290 48.5q253 0 386.5 -124t133.5 -327q0 -41 -11.5 -84.5t-27 -80t-44.5 -80.5t-52 -74t-62.5 -73t-62 -66t-64 -64t-57.5 -57l-90 -93v-4h486v-354h-1053v242l373 424q23 25 70.5 77t67.5 75.5t47 61t37.5 68t10.5 62.5v22 q0 117 -119 117q-118 0 -118 -158v-45h-414z" />
<glyph unicode="3" horiz-adv-x="1265" d="M74 412v51h420v-39q0 -59 34.5 -85t110.5 -26q53 0 85 37.5t32 100.5q0 37 -19.5 64t-49.5 40t-57.5 19t-51.5 6h-76v290h84q81 0 120 28t39 106q0 61 -34.5 93.5t-89.5 32.5q-69 0 -95 -27.5t-26 -74.5v-39h-416v51q0 202 146.5 323.5t398.5 121.5q251 0 394.5 -112 t143.5 -308q0 -118 -59 -201t-160 -116v-13q120 -29 190 -116.5t70 -208.5q0 -82 -25 -150t-69.5 -114.5t-100.5 -80.5t-123 -53t-131 -28t-130 -9q-262 0 -408.5 110.5t-146.5 326.5z" />
<glyph unicode="4" horiz-adv-x="1296" d="M63 303v320l531 837h528v-819h131v-338h-131v-303h-422v303h-637zM401 641h299v428h-10z" />
<glyph unicode="5" horiz-adv-x="1255" d="M78 356v105h416v-33q0 -47 33.5 -78t105.5 -31q131 0 131 130v98q0 54 -37 86.5t-100 32.5q-67 0 -121 -62l-387 45l37 811h944v-354h-602l-9 -244q129 84 312 84q57 0 111.5 -11t107 -38t91.5 -66.5t63 -101.5t24 -139v-184q0 -84 -32 -155t-87.5 -121t-129 -85.5 t-155.5 -52.5t-169 -17q-154 0 -275.5 41.5t-196.5 129.5t-75 210z" />
<glyph unicode="6" horiz-adv-x="1286" d="M66 424v606q0 108 50 196.5t134 144t190 85t222 29.5q248 0 394 -108t146 -300v-80h-420v43q0 52 -34 78.5t-91 26.5q-61 0 -97 -31t-36 -84v-201q158 95 328 95q177 0 277 -95t100 -241v-187q0 -103 -49 -186t-131.5 -134.5t-186.5 -78.5t-219 -27q-111 0 -213 29.5 t-184 84t-131 141.5t-49 194zM524 430q0 -51 35 -82t96 -31q64 0 102 31.5t38 77.5v121q0 40 -26 66t-56.5 35t-61.5 9q-52 0 -89.5 -31t-37.5 -110v-86z" />
<glyph unicode="7" horiz-adv-x="1261" d="M90 1108v352h1110v-301l-555 -1159h-452l542 1108h-645z" />
<glyph unicode="8" horiz-adv-x="1284" d="M63 385v70q0 93 48 166.5t120 111.5q-64 30 -104.5 103t-40.5 147v82q0 99 44 179.5t119.5 132.5t175 80t212.5 28q115 0 215.5 -26.5t177.5 -76.5t121.5 -130.5t44.5 -182.5v-78q0 -84 -39.5 -152.5t-101.5 -105.5q68 -32 117 -106.5t49 -157.5v-98q0 -124 -79 -215.5 t-208.5 -136t-290.5 -44.5q-128 0 -230 22t-182.5 69t-124 128t-43.5 191zM506 395q0 -49 37 -75.5t98 -26.5q64 0 100.5 27t36.5 79v68q0 59 -40 87t-99 28q-56 0 -94.5 -25t-38.5 -70v-92zM506 977q0 -50 36.5 -76.5t98.5 -26.5q64 0 100.5 27.5t36.5 79.5v68 q0 59 -40 86.5t-99 27.5q-56 0 -94.5 -24.5t-38.5 -69.5v-92z" />
<glyph unicode="9" horiz-adv-x="1286" d="M66 870v187q0 83 32 153.5t87.5 120.5t130 85t159.5 52t176 17q88 0 172 -18.5t157.5 -56t129 -90t87.5 -126.5t32 -160v-606q0 -108 -50 -196.5t-134 -144t-190 -85t-222 -29.5q-249 0 -395 108t-146 300v80h420v-43q0 -52 34 -78.5t91 -26.5q61 0 97 31t36 84v219 q-104 -112 -328 -112q-177 0 -276.5 94.5t-99.5 240.5zM500 920q0 -58 42 -85.5t91 -27.5q52 0 94.5 34t42.5 113v86q0 51 -35 82t-96 31q-64 0 -101.5 -31.5t-37.5 -77.5v-124z" />
<glyph unicode=":" horiz-adv-x="626" d="M102 0v397h422v-397h-422zM102 709v397h422v-397h-422z" />
<glyph unicode=";" horiz-adv-x="626" d="M102 0v395h422v-370l-157 -314h-193l74 289h-146zM102 709v397h422v-397h-422z" />
<glyph unicode="&#x3c;" horiz-adv-x="1232" d="M143 567v162l846 408l96 -195l-620 -293l625 -295l-97 -192z" />
<glyph unicode="=" horiz-adv-x="1232" d="M94 324v213h1045v-213h-1045zM94 727v215h1045v-215h-1045z" />
<glyph unicode="&#x3e;" horiz-adv-x="1232" d="M143 354l625 295l-621 293l97 195l846 -408v-162l-850 -405z" />
<glyph unicode="?" horiz-adv-x="1173" d="M70 997v66q0 83 30.5 153t82.5 118.5t121.5 82t146.5 49t159 15.5q248 0 382 -110t134 -306q0 -115 -51 -196t-141 -144q-14 -10 -44 -26.5t-52 -30.5t-45 -32.5t-35.5 -41.5t-12.5 -49v-51h-378v49q0 87 30 144t99 118q21 18 68 53t75.5 57.5t53 57t24.5 67.5 q0 47 -34 77t-87 30q-62 0 -107 -29t-45 -80v-41h-374zM342 0v397h422v-397h-422z" />
<glyph unicode="@" horiz-adv-x="1908" d="M141 571q0 189 69 356.5t189 288t290 190t364 69.5q147 0 276 -43.5t227 -124.5t154.5 -205t56.5 -275q0 -157 -63.5 -297.5t-182.5 -229.5t-264 -89q-69 0 -124 38.5t-82 94.5q-127 -127 -250 -127q-55 0 -98.5 21.5t-68.5 54.5t-41.5 77t-22 83t-5.5 79q0 130 56 245.5 t164 189t243 73.5h326l-107 -538q1 -30 20 -46t44 -16q54 0 98.5 38.5t71.5 98.5t42 128.5t15 132.5q0 79 -26.5 147t-73 117.5t-109 84.5t-135 52.5t-150.5 17.5q-193 0 -347 -92t-238 -248t-84 -346q0 -173 82 -297t216.5 -183.5t305.5 -59.5q162 0 297.5 35t322.5 114 l58 -207q-139 -71 -320 -117t-372 -46q-169 0 -318 51.5t-262 146.5t-178.5 240.5t-65.5 322.5zM815 578q0 -70 12 -92q17 -28 54 -29q26 0 47.5 9.5t37.5 30.5t26.5 37.5t19.5 48t12.5 44t9.5 41.5l37 163h-57q-76 0 -137.5 -81t-61.5 -172z" />
<glyph unicode="A" horiz-adv-x="1536" d="M12 0l494 1462h534l484 -1462h-461l-70 233h-485l-70 -233h-426zM608 571h285l-139 473h-6z" />
<glyph unicode="B" horiz-adv-x="1458" d="M106 0v1460h861q106 0 189 -29.5t132.5 -80.5t75 -115.5t25.5 -138.5q0 -116 -60.5 -214.5t-173.5 -133.5v-7q118 -31 184 -122.5t66 -204.5q0 -80 -27 -152.5t-78.5 -131.5t-136 -94.5t-190.5 -35.5h-867zM563 344h240q63 0 97 37.5t34 87.5q0 48 -37 79.5t-102 31.5 h-232v-236zM563 897h236q66 0 99.5 37.5t33.5 89.5q0 43 -33.5 72.5t-95.5 29.5h-240v-229z" />
<glyph unicode="C" horiz-adv-x="1394" d="M66 524v424q0 108 35.5 198t96.5 152t143.5 104.5t175 62.5t192.5 20q90 0 176.5 -16t169 -53.5t144.5 -92t100 -137.5t38 -185v-90h-430v47q0 81 -55.5 125.5t-130.5 44.5q-90 0 -141.5 -48t-51.5 -138v-416q0 -93 49.5 -143.5t143.5 -50.5q75 0 130.5 44.5t55.5 125.5 v47h430v-96q0 -100 -37 -182t-98.5 -136t-143 -91t-167.5 -53t-176 -16q-101 0 -193 18t-176 59.5t-145.5 103.5t-98 156.5t-36.5 211.5z" />
<glyph unicode="D" horiz-adv-x="1433" d="M102 0v1460h650q102 0 192 -17.5t168.5 -56t135 -95.5t88.5 -140.5t32 -187.5v-433q0 -138 -49 -242.5t-135.5 -166t-193.5 -91.5t-234 -30h-654zM561 356h160q89 0 136.5 55t47.5 130v381q0 82 -52.5 131t-141.5 49h-150v-746z" />
<glyph unicode="E" horiz-adv-x="1333" d="M102 0v1460h1137v-354h-678v-201h537v-352h-537v-197h678v-356h-1137z" />
<glyph unicode="F" horiz-adv-x="1288" d="M102 0v1460h1137v-354h-678v-221h537v-357h-537v-528h-459z" />
<glyph unicode="G" horiz-adv-x="1394" d="M66 524v424q0 108 35.5 198t96.5 152t143.5 104.5t175 62.5t192.5 20q90 0 177.5 -16t172 -53.5t148 -92t102.5 -137.5t39 -185v-61h-430v35q0 81 -55.5 125.5t-131.5 44.5q-91 0 -147 -48.5t-56 -138.5v-432q0 -95 50 -151t143 -56q186 0 186 164v39h-213v297h656v-366 q0 -100 -38.5 -182t-101.5 -136t-147 -91t-171 -53t-177 -16q-102 0 -194 18t-176 59.5t-145 103.5t-97.5 156.5t-36.5 211.5z" />
<glyph unicode="H" horiz-adv-x="1490" d="M102 0v1460h459v-526h369v526h459v-1460h-459v539h-369v-539h-459z" />
<glyph unicode="I" horiz-adv-x="663" d="M102 0v1460h459v-1460h-459z" />
<glyph unicode="J" horiz-adv-x="1363" d="M51 481v62h436v-56q0 -159 160 -159q88 0 124 47t36 117v968h459v-938q0 -257 -157.5 -402t-434.5 -145q-151 0 -261.5 25.5t-194 83t-125.5 156.5t-42 241z" />
<glyph unicode="K" horiz-adv-x="1447" d="M102 0v1460h459v-647l426 647h445l-404 -598l408 -862h-484l-262 559l-129 -168v-391h-459z" />
<glyph unicode="L" horiz-adv-x="1280" d="M102 0v1460h459v-1104h678v-356h-1137z" />
<glyph unicode="M" horiz-adv-x="1781" d="M102 0v1460h574l217 -602l217 602h569v-1460h-413v887h-4l-224 -662h-290l-228 662h-6v-887h-412z" />
<glyph unicode="N" horiz-adv-x="1544" d="M102 0v1460h445l477 -655h4v655h414v-1460h-414l-508 717h-4v-717h-414z" />
<glyph unicode="O" horiz-adv-x="1437" d="M66 541v374q0 115 35 210.5t95.5 161t143 111t176.5 66.5t197 21q104 0 197 -18t179 -60t147.5 -106t98.5 -163t37 -223v-372q0 -121 -37 -219t-99 -162t-147.5 -107t-177 -61.5t-192.5 -18.5q-105 0 -197 17t-177.5 58.5t-146 105t-96.5 162t-36 223.5zM528 541 q0 -100 49 -153.5t144 -53.5q88 0 138 53t50 145v398q0 94 -55.5 145t-136.5 51q-189 0 -189 -196v-389z" />
<glyph unicode="P" horiz-adv-x="1419" d="M102 0v1460h727q132 0 235 -40.5t165 -109t93.5 -153t31.5 -178.5q0 -79 -18 -151.5t-58.5 -139.5t-100 -116.5t-149 -79t-199.5 -29.5h-268v-463h-459zM561 797h182q76 0 120 47t44 112q0 66 -42 113t-120 47h-184v-319z" />
<glyph unicode="Q" horiz-adv-x="1437" d="M66 541v374q0 115 35 210.5t95.5 161t143 111t176.5 66.5t197 21q104 0 197 -18t179 -60t147.5 -106t98.5 -163t37 -223v-372q0 -140 -53 -256l119 -86l-181 -246l-155 113q-85 -53 -174 -73t-209 -20q-105 0 -197 17t-177.5 58.5t-146 105t-96.5 162t-36 223.5zM528 541 q0 -100 49 -153.5t144 -53.5q23 0 59 8l-135 96l162 221l102 -75v346q0 94 -55.5 145t-136.5 51q-189 0 -189 -196v-389z" />
<glyph unicode="R" horiz-adv-x="1439" d="M102 0v1460h701q141 0 249 -38t172 -103.5t96 -147.5t32 -176q0 -141 -66 -257.5t-196 -178.5l307 -559h-504l-236 483h-96v-483h-459zM561 797h180q76 0 120 46.5t44 112.5t-42 113t-120 47h-182v-319z" />
<glyph unicode="S" horiz-adv-x="1316" d="M12 139l217 320q81 -62 185.5 -106t203.5 -44q31 0 57.5 3.5t53.5 12t43 26t16 42.5t-9 43t-29 29.5t-38 18t-50 14.5q-2 1 -3 1l-14 3l-242 67q-156 43 -249 149t-93 261q0 101 42 192.5t117 160.5t188 110t247 41q193 0 314.5 -33t253.5 -111l-242 -301 q-56 44 -145 72.5t-158 28.5q-164 0 -164 -88q0 -14 4 -25.5t14.5 -20t20 -15t29 -13t32.5 -10t39.5 -10.5t42.5 -11l211 -59q180 -51 273.5 -156t93.5 -252q0 -89 -26 -164.5t-71.5 -129.5t-104.5 -95.5t-129.5 -66t-141.5 -36.5t-144 -12q-205 0 -355 33.5t-290 130.5z " />
<glyph unicode="T" horiz-adv-x="1368" d="M45 1106v354h1278v-354h-408v-1106h-462v1106h-408z" />
<glyph unicode="U" horiz-adv-x="1484" d="M98 530v930h459v-913q0 -106 55 -161.5t144 -55.5q83 0 134.5 58t51.5 159v913h444v-919q0 -139 -53.5 -249.5t-145 -179t-208 -104t-248.5 -35.5q-306 0 -469.5 138t-163.5 419z" />
<glyph unicode="V" horiz-adv-x="1417" d="M10 1460h459l246 -985h8l258 985h426l-465 -1462h-483z" />
<glyph unicode="W" horiz-adv-x="2017" d="M16 1460h451l174 -760h6l180 760h412l166 -760h2l170 760h424l-356 -1462h-435l-204 815h-9l-211 -815h-411z" />
<glyph unicode="X" horiz-adv-x="1429" d="M2 0l428 756l-397 704h489l219 -420l213 420h445l-400 -715l428 -745h-485l-248 457l-233 -457h-459z" />
<glyph unicode="Y" horiz-adv-x="1396" d="M-4 1460h469l254 -524l258 524h424l-473 -893v-567h-461v569z" />
<glyph unicode="Z" horiz-adv-x="1345" d="M74 0v264l639 842h-619v354h1174v-305l-596 -799h588v-356h-1186z" />
<glyph unicode="[" horiz-adv-x="737" d="M172 -354v1872h490v-185h-197v-1507h194v-180h-487z" />
<glyph unicode="\" horiz-adv-x="757" d="M10 1487h234l508 -1559h-240z" />
<glyph unicode="]" horiz-adv-x="737" d="M76 1333v185h489v-1872h-487v180h194v1507h-196z" />
<glyph unicode="^" horiz-adv-x="1583" d="M115 0v1460h1353v-1460h-1353z" />
<glyph unicode="_" horiz-adv-x="1024" d="M0 -123h1024v-164h-1024v164z" />
<glyph unicode="`" horiz-adv-x="686" d="M102 1561h316l166 -349h-201z" />
<glyph unicode="a" horiz-adv-x="1236" d="M51 287q0 87 38.5 155.5t98 108.5t139 66t153 35.5t149.5 9.5h94v71q0 50 -34.5 81.5t-100.5 31.5q-71 0 -100 -35t-29 -80v-24h-377v49q0 115 75 201t196.5 128.5t271.5 42.5q102 0 193 -23.5t166.5 -71t120 -128t44.5 -184.5v-471q0 -88 18 -250h-395l-12 143h-12 q-31 -50 -79 -86t-99.5 -52.5t-92.5 -23t-78 -6.5q-154 0 -251 81t-97 231zM483 360q0 -98 111 -98q43 0 86 35.5t43 97.5v70h-76q-77 0 -120.5 -23t-43.5 -82z" />
<glyph unicode="b" horiz-adv-x="1273" d="M94 0v1460h426v-483h4q58 74 137.5 113.5t165.5 39.5q186 0 285.5 -104.5t99.5 -282.5v-397q0 -159 -123.5 -266t-304.5 -107q-73 0 -143.5 30.5t-122.5 92.5h-4v-96h-420zM520 401q0 -40 14 -69.5t36.5 -44t44.5 -21t44 -6.5q56 0 91.5 39.5t35.5 110.5v266 q0 69 -36.5 107t-87.5 38q-63 0 -102.5 -35t-39.5 -133v-252z" />
<glyph unicode="c" horiz-adv-x="1196" d="M61 426v225q0 98 33 179.5t87.5 136t126.5 92t149 54.5t157 17q105 0 200 -26t169.5 -74t119 -123.5t44.5 -167.5v-69h-412v43q0 59 -30.5 88.5t-83.5 29.5q-63 0 -96 -34.5t-33 -100.5v-284q0 -67 33.5 -103.5t95.5 -36.5q53 0 83.5 29.5t30.5 89.5v43h412v-86 q0 -92 -44 -165t-119.5 -118t-169.5 -68.5t-200 -23.5q-81 0 -157 14t-149 48t-127 84.5t-87 129.5t-33 177z" />
<glyph unicode="d" horiz-adv-x="1271" d="M61 360v398q0 160 117.5 266t296.5 106q76 0 151.5 -27.5t123.5 -82.5h4v440h424v-1460h-416v135h-8q-59 -77 -140.5 -118.5t-167.5 -41.5q-186 0 -285.5 103.5t-99.5 281.5zM487 436q0 -70 38 -110.5t89 -40.5q58 0 99 39.5t41 119.5v258q0 75 -44 108.5t-94 33.5 q-54 0 -91.5 -42t-37.5 -122v-244z" />
<glyph unicode="e" horiz-adv-x="1191" d="M61 430v195q0 104 33 190t88 143.5t129 97t153.5 57t164.5 17.5q100 0 189.5 -30t159.5 -86t111 -145.5t41 -200.5v-213h-641v-31q0 -52 36.5 -86t81.5 -45.5t95 -11.5q118 0 332 61l68 -270q-229 -99 -473 -99q-88 0 -168 14.5t-154 49t-128 86t-86 130.5t-32 177z M489 674h250v43q0 60 -34.5 93.5t-92.5 33.5q-55 0 -89 -35t-34 -92v-43z" />
<glyph unicode="f" horiz-adv-x="839" d="M43 784v295h131v92q0 72 23 129t60 93t87.5 60t102 34t106.5 10h13q138 0 214 -23q7 -2 13 -4v-251q-62 8 -117 8q-34 0 -56 -19.5t-22 -52.5v-76h203v-295h-203v-784h-424v784h-131z" />
<glyph unicode="g" horiz-adv-x="1284" d="M74 453v297q0 160 124 270t304 110q73 0 150 -29t124 -81h4v86h410v-981q0 -134 -46 -237t-129 -166.5t-191 -96.5t-238 -35q-281 15 -496 95l117 305q174 -60 348 -60q209 0 209 176v93h-4q-62 -72 -132.5 -99.5t-162.5 -27.5q-187 0 -289 102.5t-102 278.5zM500 522 q0 -70 36 -106.5t93 -36.5q58 0 96.5 36.5t38.5 116.5v156q0 32 -10 57.5t-25.5 41t-35.5 25.5t-37.5 13.5t-34.5 3.5q-53 0 -87 -40.5t-34 -120.5v-146z" />
<glyph unicode="h" horiz-adv-x="1294" d="M94 0v1460h426v-510h4q65 94 149.5 137t198.5 43q47 0 93 -10t91.5 -34t79.5 -59t55 -89t21 -121v-817h-426v649q0 162 -135 162q-54 0 -92.5 -48.5t-38.5 -135.5v-627h-426z" />
<glyph unicode="i" horiz-adv-x="614" d="M94 0v1104h426v-1104h-426zM94 1204v281h426v-281h-426z" />
<glyph unicode="j" horiz-adv-x="647" d="M6 -82q16 -4 57 -4q72 0 72 78v1114h426v-1149q0 -89 -32.5 -158t-87 -110t-120.5 -61.5t-139 -20.5q-75 0 -176 16v295zM135 1204v281h426v-281h-426z" />
<glyph unicode="k" horiz-adv-x="1230" d="M94 0v1460h426v-768l283 412h416l-269 -387l260 -717h-454l-146 440l-90 -116v-324h-426z" />
<glyph unicode="l" horiz-adv-x="718" d="M82 270v1190h428v-1057q0 -39 15 -57t65 -18q18 0 80 8v-322q-119 -39 -234 -39q-160 0 -257 76t-97 219z" />
<glyph unicode="m" horiz-adv-x="1986" d="M94 0v1106h418v-156h4q125 180 356 180q48 0 93.5 -9t90.5 -28.5t81 -56t55 -86.5h6q125 180 367 180q47 0 93 -10t91.5 -34t79.5 -59t55 -89t21 -121v-817h-426v649q0 162 -136 162q-54 0 -92.5 -48.5t-38.5 -135.5v-627h-426v649q0 162 -135 162q-54 0 -92.5 -48.5 t-38.5 -135.5v-627h-426z" />
<glyph unicode="n" horiz-adv-x="1294" d="M94 0v1106h418v-143h4q131 167 356 167q47 0 93 -10t91.5 -34t79.5 -59t55 -89t21 -121v-817h-426v649q0 162 -135 162q-54 0 -92.5 -48.5t-38.5 -135.5v-627h-426z" />
<glyph unicode="o" d="M61 428v225q0 98 31 179t83.5 135.5t123.5 91.5t148.5 54t160.5 17t159.5 -14t151 -48.5t128.5 -86.5t87 -134t33 -185v-232q0 -98 -33.5 -177.5t-88 -130t-127.5 -84.5t-148.5 -48.5t-155.5 -14.5q-83 0 -158 12.5t-148.5 45t-127 82t-86.5 130t-33 183.5zM492 408 q0 -132 124 -132q61 0 91 37.5t30 98.5v274q0 61 -34 101t-89 40q-61 0 -91.5 -40.5t-30.5 -106.5v-272z" />
<glyph unicode="p" horiz-adv-x="1273" d="M94 -377v1483h418v-139h4q59 77 142 120t169 43q186 0 285.5 -104.5t99.5 -282.5v-397q0 -159 -123.5 -266t-304.5 -107q-70 0 -143.5 31.5t-116.5 83.5h-4v-465h-426zM520 401q0 -40 13.5 -69.5t35.5 -44t43 -21t43 -6.5q54 0 92.5 36t38.5 105v273q0 70 -36.5 108.5 t-87.5 38.5q-63 0 -102.5 -35t-39.5 -133v-252z" />
<glyph unicode="q" horiz-adv-x="1273" d="M61 358v390q0 172 116 277t298 105q76 0 155.5 -31.5t135.5 -94.5h4v102h410v-1483h-426v510h-4q-131 -158 -301 -158q-187 0 -287.5 103t-100.5 280zM487 436q0 -70 38 -110.5t89 -40.5q58 0 99 39.5t41 119.5v258q0 75 -44 108.5t-94 33.5q-54 0 -91.5 -42t-37.5 -122 v-244z" />
<glyph unicode="r" horiz-adv-x="966" d="M94 0v1106h418v-182h2q44 79 129 137.5t184 58.5q83 0 127 -12v-352q-112 16 -192 16q-35 0 -61.5 -2t-63 -13t-60 -29.5t-40.5 -55t-17 -86.5v-586h-426z" />
<glyph unicode="s" horiz-adv-x="1148" d="M37 102l176 271q70 -49 159.5 -84t168.5 -35q127 0 127 51q0 20 -14 34t-28 19.5t-36 10.5q-18 3 -33 6l-209 59q-134 38 -202 111t-68 192q0 163 133.5 278t357.5 115q161 0 260 -25t222 -89l-205 -248q-56 38 -128.5 60t-127.5 22q-123 0 -123 -55q0 -32 33 -43 q21 -7 60.5 -14t47.5 -9l176 -45q153 -40 234.5 -121t81.5 -194q0 -82 -32.5 -149.5t-85 -112t-122.5 -75t-142.5 -44t-146.5 -13.5q-171 0 -289.5 24.5t-244.5 102.5z" />
<glyph unicode="t" horiz-adv-x="884" d="M43 784v295h133v291h426v-291h227v-295h-227v-372q0 -36 18.5 -59t69.5 -23q76 0 131 8v-315q-155 -46 -289 -46q-68 0 -126.5 14.5t-112.5 48.5t-85.5 100.5t-31.5 160.5v483h-133z" />
<glyph unicode="u" horiz-adv-x="1318" d="M102 287v817h426v-649q0 -162 136 -162q54 0 92.5 48.5t38.5 135.5v627h426v-1104h-418v166h-4q-132 -191 -357 -191q-47 0 -93 10t-91.5 33.5t-79.5 58.5t-55 89t-21 121z" />
<glyph unicode="v" horiz-adv-x="1222" d="M8 1104h455l178 -635h10l183 635h380l-374 -1106h-441z" />
<glyph unicode="w" horiz-adv-x="1837" d="M12 1104h432l138 -569h12l147 569h406l147 -569h11l141 569h383q-46 -144 -346 -1106h-383l-172 643h-6l-179 -643h-387z" />
<glyph unicode="x" horiz-adv-x="1198" d="M6 2l342 563l-328 539h453l162 -289l160 289h374l-323 -537l346 -565h-455l-178 311l-174 -311h-379z" />
<glyph unicode="y" d="M18 1104h455l182 -637h9l186 637h381l-402 -1155q-33 -94 -84.5 -161.5t-115.5 -105t-132 -54.5t-145 -17q-88 0 -200 22v310q67 -17 145 -17q41 0 73 16t42 44l8 22z" />
<glyph unicode="z" horiz-adv-x="1155" d="M82 0v256l481 541h-469v307h979q-2 -86 -2 -262l-469 -531h471v-311h-991z" />
<glyph unicode="{" horiz-adv-x="737" d="M78 567v170q64 11 78 30.5t14 78.5v409q0 128 61 195.5t164 67.5h264v-183h-147q-45 0 -45 -47v-389q0 -101 -28.5 -157t-98.5 -83v-12q78 -32 102.5 -79t24.5 -156v-537q0 -47 45 -47h147v-182h-264q-103 0 -164 67t-61 195v518q0 77 -18 106t-74 35z" />
<glyph unicode="|" horiz-adv-x="671" d="M209 -82v1567h254v-1567h-254z" />
<glyph unicode="}" horiz-adv-x="737" d="M78 -172h147q45 0 45 47v537q0 109 24.5 156t102.5 79v12q-70 27 -98.5 83t-28.5 157v389q0 47 -45 47h-147v183h264q103 0 164 -67.5t61 -195.5v-409q0 -59 14 -78.5t78 -30.5v-170q-56 -6 -74 -35t-18 -106v-518q0 -128 -61 -195t-164 -67h-264v182z" />
<glyph unicode="~" horiz-adv-x="1583" d="M115 0v1460h1353v-1460h-1353zM293 178h997v1104h-997v-1104z" />
<glyph unicode="&#xa1;" horiz-adv-x="659" d="M109 197l98 440h246l98 -440v-527h-442v527zM119 733v397h422v-397h-422z" />
<glyph unicode="&#xa2;" horiz-adv-x="1220" d="M82 498v200q0 100 33.5 182t91.5 137.5t129.5 91.5t155.5 54v164h292v-164q169 -31 276 -129t107 -246v-57h-395v31q0 67 -35.5 101t-95.5 34q-69 0 -106 -40t-37 -112v-262q0 -73 36.5 -114t106.5 -41q60 0 95.5 34t35.5 101v31h395v-76q0 -98 -52 -174.5t-136 -121 t-195 -63.5v-155h-292v155q-84 15 -155 46.5t-130 83.5t-92 131t-33 178z" />
<glyph unicode="&#xa3;" horiz-adv-x="1333" d="M86 0v338h162v246h-113v235h113v219q0 99 33.5 177.5t87 128t125 82.5t142 46t144.5 13q72 0 139.5 -14.5t130 -46t109 -77t74 -113t27.5 -149.5v-108h-363v59q0 54 -29 84.5t-86 30.5q-56 0 -85 -35.5t-29 -79.5v-217h327v-235h-327v-246h612l-70 -338h-1124z" />
<glyph unicode="&#xa4;" horiz-adv-x="1550" d="M78 477v201h170v121h-170v200h172q9 121 62.5 216t138.5 153t190 87.5t223 29.5q90 0 176.5 -16t169.5 -53.5t145 -92t100 -137.5t38 -185v-90h-430v47q0 81 -55.5 125.5t-130.5 44.5q-141 0 -162 -129h262v-200h-266v-121h266v-201h-264q8 -72 46.5 -108.5t117.5 -36.5 q75 0 130.5 44.5t55.5 125.5v47h430v-96q0 -100 -37.5 -182t-98.5 -136t-143 -91t-168 -53t-176 -16q-97 0 -182.5 16.5t-164 54.5t-136 95t-94 142.5t-43.5 193.5h-172z" />
<glyph unicode="&#xa5;" horiz-adv-x="1396" d="M-4 1460h469l254 -524l258 524h424l-391 -737h286v-225h-368v-498h-461v498h-367v225h285z" />
<glyph unicode="&#xa6;" horiz-adv-x="1024" />
<glyph unicode="&#xa7;" horiz-adv-x="1130" d="M106 162v71h275v-38q0 -57 44 -95.5t140 -38.5q94 0 139.5 38.5t45.5 78.5q0 14 -3.5 25.5t-13.5 21t-16.5 16t-24 13.5t-23 9.5t-26 9.5t-22.5 8l-195 57q-299 86 -299 321q0 148 104 242q-104 79 -104 232q0 161 120 256.5t326 95.5q195 0 316 -87.5t121 -252.5v-66 h-269v54q0 44 -42.5 79t-135.5 35q-80 0 -117.5 -29t-37.5 -71q0 -17 20.5 -33t42.5 -25t54.5 -19.5t37.5 -12.5l176 -64q48 -17 79 -30.5t74.5 -40t69.5 -56.5t45 -76.5t19 -103.5q0 -159 -102 -248q106 -93 106 -233q0 -167 -131.5 -275t-347.5 -108q-59 0 -117 9.5 t-118.5 34t-106 61.5t-74.5 98t-29 137zM410 672q0 -7 3 -14t9 -13t12 -10.5t16.5 -9.5t17.5 -8t19.5 -7t17.5 -5.5t17 -5t13 -3.5q49 -12 135 -39q41 16 59.5 41.5t18.5 50.5t-21.5 43t-75.5 35q-106 33 -157 47q-84 -34 -84 -102z" />
<glyph unicode="&#xa8;" horiz-adv-x="983" d="M125 1219v305h281v-305h-281zM578 1219v305h280v-305h-280z" />
<glyph unicode="&#xa9;" horiz-adv-x="1894" d="M104 709q0 170 62.5 323t172 266t267 179.5t338.5 66.5q188 0 348 -66t268.5 -179t169 -265t60.5 -323q0 -170 -62 -323.5t-170.5 -268t-268.5 -181.5t-345 -67q-192 0 -352 66.5t-266 181t-164 266.5t-58 324zM319 709q0 -151 52 -278.5t138.5 -211.5t199 -131 t235.5 -47q122 0 236.5 48t202.5 132.5t141 212.5t53 277q0 150 -51.5 277.5t-139 212.5t-202 133t-240.5 48q-128 0 -242 -47.5t-199 -132.5t-134.5 -213t-49.5 -280zM510 582v272q0 91 38 162.5t101.5 114t141.5 64.5t163 22q61 0 120 -10.5t116.5 -35.5t101 -61.5 t70.5 -93.5t27 -127v-76h-322v47q0 44 -30 68t-74 24q-111 0 -111 -102v-268q0 -109 111 -109q44 0 74 25t30 69v47h322v-79q0 -69 -26.5 -125t-69.5 -92t-100 -61t-116 -35.5t-119 -10.5q-68 0 -131 12t-121.5 40t-101 69.5t-68.5 106t-26 143.5z" />
<glyph unicode="&#xaa;" horiz-adv-x="931" d="M98 948q0 57 25.5 101.5t64 70t90 42t98.5 22.5t95 6h55v39q0 29 -20.5 48t-59.5 19q-77 0 -77 -67v-21h-250v35q0 112 101 176t249 64q66 0 124.5 -15t108 -45t78.5 -81.5t29 -118.5v-297q0 -66 12 -162h-262l-8 90q-39 -59 -104 -82.5t-121 -23.5q-100 0 -164 52 t-64 148zM150 459v188h649v-188h-649zM385 995q0 -57 66 -57q25 0 50 21.5t25 58.5v39h-43q-98 0 -98 -62z" />
<glyph unicode="&#xab;" horiz-adv-x="1329" d="M25 528l479 449l184 -164l-307 -285l311 -286l-188 -158zM637 528l479 449l184 -164l-307 -285l312 -286l-189 -158z" />
<glyph unicode="&#xac;" horiz-adv-x="1171" d="M113 317l321 332l-321 336l149 154l324 -334l323 332l150 -152l-322 -334l322 -334l-150 -153l-323 332l-324 -332z" />
<glyph unicode="&#xad;" horiz-adv-x="741" d="M55 449v272h631v-272h-631z" />
<glyph unicode="&#xae;" horiz-adv-x="1083" d="M131 1190q0 172 116.5 292t293.5 120q183 0 297 -119.5t114 -292.5q0 -112 -50.5 -206.5t-145.5 -151t-215 -56.5q-124 0 -219 57.5t-143 150.5t-48 206zM244 1190q0 -143 88 -231.5t209 -88.5t210 89t89 231q0 143 -87.5 232t-211.5 89q-126 0 -211.5 -88t-85.5 -233z M360 1001v398h246q131 0 131 -107q0 -36 -18 -61t-49 -33v-6q61 -17 67 -76l4 -51q3 -46 17 -57v-7h-133q-12 18 -15 43l-4 50q-1 24 -11 33.5t-32 9.5h-67v-136h-136zM496 1227h71q33 0 33 41q0 35 -35 35h-69v-76z" />
<glyph unicode="&#xaf;" horiz-adv-x="886" d="M53 1231v207h781v-207h-781z" />
<glyph unicode="&#xb0;" horiz-adv-x="620" d="M109 1303q0 83 58 143.5t144 60.5q92 0 147.5 -57.5t55.5 -138.5q0 -85 -60 -145t-143 -60q-93 0 -147.5 59t-54.5 138zM238 1305q0 -35 21 -58.5t52 -23.5t53.5 23.5t22.5 58.5t-20.5 60.5t-55.5 25.5q-32 0 -52.5 -24.5t-20.5 -61.5z" />
<glyph unicode="&#xb1;" horiz-adv-x="1024" />
<glyph unicode="&#xb2;" horiz-adv-x="1024" />
<glyph unicode="&#xb3;" horiz-adv-x="1024" />
<glyph unicode="&#xb4;" horiz-adv-x="686" d="M102 1212l166 349h316l-281 -349h-201z" />
<glyph unicode="&#xb5;" horiz-adv-x="1024" />
<glyph unicode="&#xb6;" horiz-adv-x="1271" d="M117 932q0 132 52 251.5t153.5 198t230.5 78.5h637v-188h-88v-1456h-234v1456h-133v-1456h-231v600q-102 12 -178.5 59.5t-121 120t-66 157t-21.5 179.5z" />
<glyph unicode="&#xb7;" horiz-adv-x="626" d="M102 623v397h422v-397h-422z" />
<glyph unicode="&#xb8;" horiz-adv-x="745" d="M113 -240q137 -28 223 -28q76 0 76 41q0 32 -62 36q-4 0 -11 1h-7l-111 6l60 213h153l-28 -107q241 5 241 -145q0 -60 -48 -102t-112.5 -59t-136.5 -17q-99 0 -237 32v129z" />
<glyph unicode="&#xb9;" horiz-adv-x="1024" />
<glyph unicode="&#xba;" horiz-adv-x="931" d="M102 1044v146q0 79 31 140t83 97t115 54t132 18t130.5 -16t116 -49.5t87 -95t32.5 -144.5v-147q0 -79 -33 -139t-87.5 -93t-115.5 -49t-126 -16q-54 0 -103.5 8t-98 29t-84 53.5t-57.5 84.5t-22 119zM150 459v188h649v-188h-649zM391 1032q0 -80 76 -80q37 0 55.5 22.5 t18.5 59.5v176q0 37 -21 60.5t-53 23.5q-38 0 -57 -24t-19 -64v-174z" />
<glyph unicode="&#xbb;" horiz-adv-x="1329" d="M25 819l188 158l479 -445l-479 -448l-184 164l307 284zM637 819l188 158l480 -445l-480 -448l-184 164l307 284z" />
<glyph unicode="&#xbc;" horiz-adv-x="1024" />
<glyph unicode="&#xbd;" horiz-adv-x="1024" />
<glyph unicode="&#xbe;" horiz-adv-x="1024" />
<glyph unicode="&#xbf;" horiz-adv-x="1173" d="M61 66q0 115 51.5 196t141.5 144q14 10 44 26.5t51.5 30.5t44.5 32.5t35.5 41.5t12.5 49v51h379v-49q0 -87 -30 -144t-99 -118q-21 -18 -68.5 -53t-75.5 -58t-52.5 -57.5t-24.5 -67.5q0 -47 34 -76.5t87 -29.5q62 0 106.5 28.5t44.5 79.5v41h375v-65q0 -83 -30.5 -153 t-82.5 -118.5t-121.5 -82t-146.5 -49t-159 -15.5q-248 0 -382.5 110.5t-134.5 305.5zM424 733v397h422v-397h-422z" />
<glyph unicode="&#xc0;" horiz-adv-x="1536" d="M12 0l494 1462h534l484 -1462h-461l-70 233h-485l-70 -233h-426zM391 1913h316l165 -348h-200zM608 571h285l-139 473h-6z" />
<glyph unicode="&#xc1;" horiz-adv-x="1536" d="M12 0l494 1462h534l484 -1462h-461l-70 233h-485l-70 -233h-426zM608 571h285l-139 473h-6zM666 1565l165 348h316l-281 -348h-200z" />
<glyph unicode="&#xc2;" horiz-adv-x="1536" d="M12 0l494 1462h534l484 -1462h-461l-70 233h-485l-70 -233h-426zM432 1556l219 365h230l223 -365h-240l-94 193l-98 -193h-240zM608 571h285l-139 473h-6z" />
<glyph unicode="&#xc3;" horiz-adv-x="1536" d="M12 0l494 1462h534l484 -1462h-461l-70 233h-485l-70 -233h-426zM350 1565q20 123 80 200.5t172 77.5q60 0 172 -31.5t172 -31.5q38 0 60 22t41 68l139 -33q-37 -274 -240 -274q-60 0 -174 30.5t-174 30.5q-45 0 -64.5 -18.5t-37.5 -71.5zM608 571h285l-139 473h-6z" />
<glyph unicode="&#xc4;" horiz-adv-x="1536" d="M12 0l494 1462h534l484 -1462h-461l-70 233h-485l-70 -233h-426zM401 1577v305h281v-305h-281zM608 571h285l-139 473h-6zM854 1577v305h281v-305h-281z" />
<glyph unicode="&#xc5;" horiz-adv-x="1536" d="M12 0l494 1462h534l484 -1462h-461l-70 233h-485l-70 -233h-426zM532 1774q0 98 69.5 162.5t168.5 64.5q102 0 171 -56.5t69 -156.5q0 -97 -71.5 -163t-168.5 -66q-102 0 -170 57.5t-68 157.5zM608 571h285l-139 473h-6zM668 1780q0 -41 30.5 -71t71.5 -30q42 0 73 29.5 t31 71.5q0 46 -29 74t-75 28q-44 0 -73 -29t-29 -73z" />
<glyph unicode="&#xc6;" horiz-adv-x="2191" d="M4 0l680 1460h1413v-354h-678v-201h537v-352h-537v-197h678v-356h-1136v236h-394l-102 -236h-461zM713 571h248v568z" />
<glyph unicode="&#xc7;" horiz-adv-x="1394" d="M66 524v424q0 108 35.5 198t96.5 152t143.5 104.5t175 62.5t192.5 20q90 0 176.5 -16t169 -53.5t144.5 -92t100 -137.5t38 -185v-90h-430v47q0 81 -55.5 125.5t-130.5 44.5q-90 0 -141.5 -48t-51.5 -138v-416q0 -93 49.5 -143.5t143.5 -50.5q75 0 130.5 44.5t55.5 125.5 v47h430v-96q0 -92 -32 -169t-85 -130t-125 -91.5t-149.5 -59t-161.5 -26.5l-14 -55q242 5 242 -145q0 -60 -48 -102t-112.5 -59t-136.5 -17q-104 0 -238 32v129q137 -28 221 -28q78 0 78 41q0 32 -62 36q-4 0 -11 1h-7l-110 6l45 164q-92 7 -172.5 29.5t-153.5 66 t-125.5 104t-83 149t-30.5 195.5z" />
<glyph unicode="&#xc8;" horiz-adv-x="1333" d="M102 0v1460h1137v-354h-678v-201h537v-352h-537v-197h678v-356h-1137zM307 1913h316l165 -348h-200z" />
<glyph unicode="&#xc9;" horiz-adv-x="1333" d="M102 0v1460h1137v-354h-678v-201h537v-352h-537v-197h678v-356h-1137zM545 1565l166 348h315l-281 -348h-200z" />
<glyph unicode="&#xca;" horiz-adv-x="1333" d="M102 0v1460h1137v-354h-678v-201h537v-352h-537v-197h678v-356h-1137zM354 1556l219 365h230l221 -365h-240l-94 193l-98 -193h-238z" />
<glyph unicode="&#xcb;" horiz-adv-x="1333" d="M102 0v1460h1137v-354h-678v-201h537v-352h-537v-197h678v-356h-1137zM348 1577v305h281v-305h-281zM801 1577v305h280v-305h-280z" />
<glyph unicode="&#xcc;" horiz-adv-x="663" d="M-47 1913h315l166 -348h-201zM102 0v1460h459v-526v-395v-539h-459z" />
<glyph unicode="&#xcd;" horiz-adv-x="663" d="M102 0v1460h459v-526v-395v-539h-459zM225 1565l166 348h316l-281 -348h-201z" />
<glyph unicode="&#xce;" horiz-adv-x="663" d="M-4 1556l219 365h229l224 -365h-240l-94 193l-98 -193h-240zM102 0v1460h459v-526v-395v-539h-459z" />
<glyph unicode="&#xcf;" horiz-adv-x="663" d="M-35 1577v305h281v-305h-281zM102 0v1460h459v-526v-395v-539h-459zM418 1577v305h280v-305h-280z" />
<glyph unicode="&#xd0;" horiz-adv-x="1472" d="M23 639v225h118v596h650q102 0 192 -17.5t168.5 -56t135 -95.5t88.5 -140.5t32 -187.5v-433q0 -138 -49 -242.5t-135.5 -166t-193.5 -91.5t-234 -30h-654v639h-118zM600 356h160q89 0 136.5 55t47.5 130v381q0 82 -52.5 131t-141.5 49h-150v-238h203v-225h-203v-283z" />
<glyph unicode="&#xd1;" horiz-adv-x="1544" d="M102 0v1460h445l477 -655h4v655h414v-1460h-414l-508 717h-4v-717h-414zM354 1565q20 123 80 200.5t172 77.5q60 0 172 -31.5t172 -31.5q38 0 60 22t41 68l139 -33q-37 -274 -240 -274q-60 0 -174 30.5t-174 30.5q-45 0 -64.5 -18.5t-37.5 -71.5z" />
<glyph unicode="&#xd2;" horiz-adv-x="1437" d="M66 541v374q0 115 35 210.5t95.5 161t143 111t176.5 66.5t197 21q104 0 197 -18t179 -60t147.5 -106t98.5 -163t37 -223v-372q0 -121 -37 -219t-99 -162t-147.5 -107t-177 -61.5t-192.5 -18.5q-105 0 -197 17t-177.5 58.5t-146 105t-96.5 162t-36 223.5zM356 1913h316 l166 -348h-201zM528 541q0 -100 49 -153.5t144 -53.5q88 0 138 53t50 145v398q0 94 -55.5 145t-136.5 51q-189 0 -189 -196v-389z" />
<glyph unicode="&#xd3;" horiz-adv-x="1437" d="M66 541v374q0 115 35 210.5t95.5 161t143 111t176.5 66.5t197 21q104 0 197 -18t179 -60t147.5 -106t98.5 -163t37 -223v-372q0 -121 -37 -219t-99 -162t-147.5 -107t-177 -61.5t-192.5 -18.5q-105 0 -197 17t-177.5 58.5t-146 105t-96.5 162t-36 223.5zM528 541 q0 -100 49 -153.5t144 -53.5q88 0 138 53t50 145v398q0 94 -55.5 145t-136.5 51q-189 0 -189 -196v-389zM633 1565l166 348h315l-280 -348h-201z" />
<glyph unicode="&#xd4;" horiz-adv-x="1437" d="M66 541v374q0 115 35 210.5t95.5 161t143 111t176.5 66.5t197 21q104 0 197 -18t179 -60t147.5 -106t98.5 -163t37 -223v-372q0 -121 -37 -219t-99 -162t-147.5 -107t-177 -61.5t-192.5 -18.5q-105 0 -197 17t-177.5 58.5t-146 105t-96.5 162t-36 223.5zM383 1556 l219 365h229l224 -365h-240l-94 193l-98 -193h-240zM528 541q0 -100 49 -153.5t144 -53.5q88 0 138 53t50 145v398q0 94 -55.5 145t-136.5 51q-189 0 -189 -196v-389z" />
<glyph unicode="&#xd5;" horiz-adv-x="1437" d="M66 541v374q0 115 35 210.5t95.5 161t143 111t176.5 66.5t197 21q104 0 197 -18t179 -60t147.5 -106t98.5 -163t37 -223v-372q0 -121 -37 -219t-99 -162t-147.5 -107t-177 -61.5t-192.5 -18.5q-105 0 -197 17t-177.5 58.5t-146 105t-96.5 162t-36 223.5zM301 1565 q20 123 80 200.5t172 77.5q59 0 172 -31.5t172 -31.5q38 0 59 21.5t41 68.5l140 -33q-37 -274 -240 -274q-59 0 -174 30.5t-174 30.5q-45 0 -65 -19t-38 -71zM528 541q0 -100 49 -153.5t144 -53.5q88 0 138 53t50 145v398q0 94 -55.5 145t-136.5 51q-189 0 -189 -196v-389z " />
<glyph unicode="&#xd6;" horiz-adv-x="1437" d="M66 541v374q0 115 35 210.5t95.5 161t143 111t176.5 66.5t197 21q104 0 197 -18t179 -60t147.5 -106t98.5 -163t37 -223v-372q0 -121 -37 -219t-99 -162t-147.5 -107t-177 -61.5t-192.5 -18.5q-105 0 -197 17t-177.5 58.5t-146 105t-96.5 162t-36 223.5zM352 1577v305 h281v-305h-281zM528 541q0 -100 49 -153.5t144 -53.5q88 0 138 53t50 145v398q0 94 -55.5 145t-136.5 51q-189 0 -189 -196v-389zM805 1577v305h280v-305h-280z" />
<glyph unicode="&#xd7;" horiz-adv-x="1171" d="M113 317l321 332l-321 336l149 154l324 -334l323 332l150 -152l-322 -334l322 -334l-150 -153l-323 332l-324 -332z" />
<glyph unicode="&#xd8;" horiz-adv-x="1437" d="M66 541v374q0 115 35 210.5t95.5 161t143 111t176.5 66.5t197 21q222 0 381 -80l98 143l137 -86l-104 -151q147 -144 147 -396v-372q0 -121 -37 -219t-99 -162t-147.5 -107t-177 -61.5t-192.5 -18.5q-208 0 -361 68l-104 -149l-145 81l110 160q-153 143 -153 406z M528 586l332 481q-53 59 -143 59q-189 0 -189 -196v-344zM586 379q48 -45 135 -45q88 0 138 53t50 145v318z" />
<glyph unicode="&#xd9;" horiz-adv-x="1484" d="M98 530v930h459v-913q0 -106 55 -161.5t144 -55.5q83 0 134.5 58t51.5 159v913h444v-919q0 -139 -53.5 -249.5t-145 -179t-208 -104t-248.5 -35.5q-306 0 -469.5 138t-163.5 419zM385 1913h315l166 -348h-200z" />
<glyph unicode="&#xda;" horiz-adv-x="1484" d="M98 530v930h459v-913q0 -106 55 -161.5t144 -55.5q83 0 134.5 58t51.5 159v913h444v-919q0 -139 -53.5 -249.5t-145 -179t-208 -104t-248.5 -35.5q-306 0 -469.5 138t-163.5 419zM666 1565l165 348h316l-281 -348h-200z" />
<glyph unicode="&#xdb;" horiz-adv-x="1484" d="M98 530v930h459v-913q0 -106 55 -161.5t144 -55.5q83 0 134.5 58t51.5 159v913h444v-919q0 -139 -53.5 -249.5t-145 -179t-208 -104t-248.5 -35.5q-306 0 -469.5 138t-163.5 419zM420 1556l219 365h229l222 -365h-240l-94 193l-99 -193h-237z" />
<glyph unicode="&#xdc;" horiz-adv-x="1484" d="M98 530v930h459v-913q0 -106 55 -161.5t144 -55.5q83 0 134.5 58t51.5 159v913h444v-919q0 -139 -53.5 -249.5t-145 -179t-208 -104t-248.5 -35.5q-306 0 -469.5 138t-163.5 419zM375 1577v305h280v-305h-280zM827 1577v305h283v-305h-283z" />
<glyph unicode="&#xdd;" horiz-adv-x="1396" d="M-4 1460h469l254 -524l258 524h424l-473 -893v-567h-461v569zM633 1565l166 348h315l-280 -348h-201z" />
<glyph unicode="&#xde;" horiz-adv-x="1419" d="M102 0v1460h459v-260h268q132 0 235 -36.5t165 -99t93.5 -139.5t31.5 -163q0 -90 -29.5 -171.5t-90 -150t-165 -109t-240.5 -40.5h-268v-291h-459zM561 596h182q76 0 120 43t44 102q0 60 -42 103t-120 43h-184v-291z" />
<glyph unicode="&#xdf;" horiz-adv-x="1390" d="M94 0v965q0 73 17 142.5t60 139.5t108 121.5t170 84t237 32.5q114 0 213 -24.5t176.5 -72.5t122.5 -126.5t45 -178.5q0 -98 -53 -174.5t-152 -103.5v-10q135 -48 216 -152t81 -235t-64.5 -231.5t-166 -151t-219.5 -50.5q-169 0 -267 33v320q94 -15 115 -15q72 0 110 33.5 t38 91.5q0 63 -58.5 100t-173.5 37v299h47q53 24 85 68t32 102q0 142 -137 142q-73 0 -115.5 -47t-42.5 -123v-1016h-424z" />
<glyph unicode="&#xe0;" horiz-adv-x="1236" d="M51 287q0 87 38.5 155.5t98 108.5t139 66t153 35.5t149.5 9.5h94v71q0 50 -34.5 81.5t-100.5 31.5q-71 0 -100 -35t-29 -80v-24h-377v49q0 115 75 201t196.5 128.5t271.5 42.5q102 0 193 -23.5t166.5 -71t120 -128t44.5 -184.5v-471q0 -88 18 -250h-395l-12 143h-12 q-31 -50 -79 -86t-99.5 -52.5t-92.5 -23t-78 -6.5q-154 0 -251 81t-97 231zM264 1561h316l165 -349h-200zM483 360q0 -98 111 -98q43 0 86 35.5t43 97.5v70h-76q-77 0 -120.5 -23t-43.5 -82z" />
<glyph unicode="&#xe1;" horiz-adv-x="1236" d="M51 287q0 87 38.5 155.5t98 108.5t139 66t153 35.5t149.5 9.5h94v71q0 50 -34.5 81.5t-100.5 31.5q-71 0 -100 -35t-29 -80v-24h-377v49q0 115 75 201t196.5 128.5t271.5 42.5q102 0 193 -23.5t166.5 -71t120 -128t44.5 -184.5v-471q0 -88 18 -250h-395l-12 143h-12 q-31 -50 -79 -86t-99.5 -52.5t-92.5 -23t-78 -6.5q-154 0 -251 81t-97 231zM483 360q0 -98 111 -98q43 0 86 35.5t43 97.5v70h-76q-77 0 -120.5 -23t-43.5 -82zM502 1212l166 349h315l-281 -349h-200z" />
<glyph unicode="&#xe2;" horiz-adv-x="1236" d="M51 287q0 87 38.5 155.5t98 108.5t139 66t153 35.5t149.5 9.5h94v71q0 50 -34.5 81.5t-100.5 31.5q-71 0 -100 -35t-29 -80v-24h-377v49q0 115 75 201t196.5 128.5t271.5 42.5q102 0 193 -23.5t166.5 -71t120 -128t44.5 -184.5v-471q0 -88 18 -250h-395l-12 143h-12 q-31 -50 -79 -86t-99.5 -52.5t-92.5 -23t-78 -6.5q-154 0 -251 81t-97 231zM291 1212l219 365h229l222 -365h-240l-94 193l-99 -193h-237zM483 360q0 -98 111 -98q43 0 86 35.5t43 97.5v70h-76q-77 0 -120.5 -23t-43.5 -82z" />
<glyph unicode="&#xe3;" horiz-adv-x="1236" d="M51 287q0 87 38.5 155.5t98 108.5t139 66t153 35.5t149.5 9.5h94v71q0 50 -34.5 81.5t-100.5 31.5q-71 0 -100 -35t-29 -80v-24h-377v49q0 115 75 201t196.5 128.5t271.5 42.5q102 0 193 -23.5t166.5 -71t120 -128t44.5 -184.5v-471q0 -88 18 -250h-395l-12 143h-12 q-31 -50 -79 -86t-99.5 -52.5t-92.5 -23t-78 -6.5q-154 0 -251 81t-97 231zM213 1223q20 123 80 200.5t172 77.5q59 0 172 -31.5t172 -31.5q38 0 59 21.5t41 68.5l140 -33q-37 -274 -240 -274q-59 0 -174 30.5t-174 30.5q-45 0 -65 -19t-38 -71zM483 360q0 -98 111 -98 q43 0 86 35.5t43 97.5v70h-76q-77 0 -120.5 -23t-43.5 -82z" />
<glyph unicode="&#xe4;" horiz-adv-x="1236" d="M51 287q0 87 38.5 155.5t98 108.5t139 66t153 35.5t149.5 9.5h94v71q0 50 -34.5 81.5t-100.5 31.5q-71 0 -100 -35t-29 -80v-24h-377v49q0 115 75 201t196.5 128.5t271.5 42.5q102 0 193 -23.5t166.5 -71t120 -128t44.5 -184.5v-471q0 -88 18 -250h-395l-12 143h-12 q-31 -50 -79 -86t-99.5 -52.5t-92.5 -23t-78 -6.5q-154 0 -251 81t-97 231zM268 1219v305h281v-305h-281zM483 360q0 -98 111 -98q43 0 86 35.5t43 97.5v70h-76q-77 0 -120.5 -23t-43.5 -82zM721 1219v305h280v-305h-280z" />
<glyph unicode="&#xe5;" horiz-adv-x="1236" d="M51 287q0 87 38.5 155.5t98 108.5t139 66t153 35.5t149.5 9.5h94v71q0 50 -34.5 81.5t-100.5 31.5q-71 0 -100 -35t-29 -80v-24h-377v49q0 115 75 201t196.5 128.5t271.5 42.5q102 0 193 -23.5t166.5 -71t120 -128t44.5 -184.5v-471q0 -88 18 -250h-395l-12 143h-12 q-31 -50 -79 -86t-99.5 -52.5t-92.5 -23t-78 -6.5q-154 0 -251 81t-97 231zM381 1419q0 98 69.5 163t167.5 65q102 0 171 -56.5t69 -156.5q0 -97 -71.5 -163.5t-168.5 -66.5q-102 0 -169.5 57.5t-67.5 157.5zM483 360q0 -98 111 -98q43 0 86 35.5t43 97.5v70h-76 q-77 0 -120.5 -23t-43.5 -82zM516 1425q0 -41 30.5 -70.5t71.5 -29.5q42 0 73.5 29t31.5 71q0 46 -29.5 74.5t-75.5 28.5q-44 0 -73 -29.5t-29 -73.5z" />
<glyph unicode="&#xe6;" horiz-adv-x="1863" d="M51 287q0 87 38.5 155.5t98 108.5t139 66t153 35.5t149.5 9.5h94v71q0 50 -34.5 81.5t-100.5 31.5q-71 0 -100 -35t-29 -80v-24h-377v49q0 115 75 201t196.5 128.5t271.5 42.5q198 0 333 -79q139 81 330 81q100 0 190 -30t160 -86t111 -145.5t41 -200.5v-213h-641v-31 q0 -52 36.5 -86t81.5 -45.5t95 -11.5q118 0 332 61l67 -270q-229 -99 -473 -99q-155 0 -283.5 48t-201.5 149q-30 -47 -67 -82t-77 -55.5t-74.5 -33t-75 -17.5t-61 -6t-49.5 -1q-154 0 -251 81t-97 231zM483 360q0 -98 111 -98q43 0 86 35.5t43 97.5v70h-76 q-77 0 -120.5 -23t-43.5 -82zM1149 674h250v43q0 60 -34.5 93.5t-92.5 33.5q-55 0 -89 -35t-34 -92v-43z" />
<glyph unicode="&#xe7;" horiz-adv-x="1196" d="M61 426v225q0 98 33 179.5t87.5 136t126.5 92t149 54.5t157 17q105 0 200 -26t169.5 -74t119 -123.5t44.5 -167.5v-69h-412v43q0 59 -30.5 88.5t-83.5 29.5q-63 0 -96 -34.5t-33 -100.5v-284q0 -67 33.5 -103.5t95.5 -36.5q53 0 83.5 29.5t30.5 89.5v43h412v-86 q0 -86 -39 -156t-106 -115t-152.5 -71t-183.5 -31l-15 -53q242 5 242 -145q0 -60 -48 -102t-112.5 -59t-136.5 -17q-104 0 -238 32v129q136 -28 222 -28q77 0 77 41q0 15 -12 23.5t-27 10.5t-33 3h-7l-111 6l45 164q-90 11 -167 40.5t-142.5 81t-103.5 135t-38 189.5z" />
<glyph unicode="&#xe8;" horiz-adv-x="1204" d="M61 430v195q0 104 33 190t88 143.5t129 97t153.5 57t164.5 17.5q100 0 189.5 -30t159.5 -86t111 -145.5t41 -200.5v-213h-641v-31q0 -52 36.5 -86t81.5 -45.5t95 -11.5q118 0 332 61l68 -270q-229 -99 -473 -99q-88 0 -168 14.5t-154 49t-128 86t-86 130.5t-32 177z M264 1561h316l165 -349h-200zM489 674h250v43q0 60 -34.5 93.5t-92.5 33.5q-55 0 -89 -35t-34 -92v-43z" />
<glyph unicode="&#xe9;" horiz-adv-x="1204" d="M61 430v195q0 104 33 190t88 143.5t129 97t153.5 57t164.5 17.5q100 0 189.5 -30t159.5 -86t111 -145.5t41 -200.5v-213h-641v-31q0 -52 36.5 -86t81.5 -45.5t95 -11.5q118 0 332 61l68 -270q-229 -99 -473 -99q-88 0 -168 14.5t-154 49t-128 86t-86 130.5t-32 177z M489 674h250v43q0 60 -34.5 93.5t-92.5 33.5q-55 0 -89 -35t-34 -92v-43zM502 1212l166 349h315l-281 -349h-200z" />
<glyph unicode="&#xea;" horiz-adv-x="1204" d="M61 430v195q0 104 33 190t88 143.5t129 97t153.5 57t164.5 17.5q100 0 189.5 -30t159.5 -86t111 -145.5t41 -200.5v-213h-641v-31q0 -52 36.5 -86t81.5 -45.5t95 -11.5q118 0 332 61l68 -270q-229 -99 -473 -99q-88 0 -168 14.5t-154 49t-128 86t-86 130.5t-32 177z M291 1212l219 365h229l222 -365h-240l-94 193l-99 -193h-237zM489 674h250v43q0 60 -34.5 93.5t-92.5 33.5q-55 0 -89 -35t-34 -92v-43z" />
<glyph unicode="&#xeb;" horiz-adv-x="1204" d="M61 430v195q0 104 33 190t88 143.5t129 97t153.5 57t164.5 17.5q100 0 189.5 -30t159.5 -86t111 -145.5t41 -200.5v-213h-641v-31q0 -52 36.5 -86t81.5 -45.5t95 -11.5q118 0 332 61l68 -270q-229 -99 -473 -99q-88 0 -168 14.5t-154 49t-128 86t-86 130.5t-32 177z M287 1219v305h280v-305h-280zM489 674h250v43q0 60 -34.5 93.5t-92.5 33.5q-55 0 -89 -35t-34 -92v-43zM739 1219v305h281v-305h-281z" />
<glyph unicode="&#xec;" horiz-adv-x="614" d="M-78 1561h316l168 -349h-203zM94 0v1104h426v-1104h-426z" />
<glyph unicode="&#xed;" horiz-adv-x="614" d="M94 0v1104h426v-1104h-426zM182 1212l166 349h316l-281 -349h-201z" />
<glyph unicode="&#xee;" horiz-adv-x="614" d="M-29 1212l219 365h230l223 -365h-240l-94 193l-98 -193h-240zM94 0v1104h426v-1104h-426z" />
<glyph unicode="&#xef;" horiz-adv-x="614" d="M-59 1219v305h280v-305h-280zM94 0v1104h426v-1104h-426zM393 1219v305h281v-305h-281z" />
<glyph unicode="&#xf0;" d="M61 428v152q0 99 31.5 180.5t87.5 137t125.5 91.5t153.5 53l-60 76l-186 -51l-107 184l156 43l-127 166l443 70l92 -123l217 59l106 -184l-188 -53l258 -342q104 -136 104 -299v-158q0 -98 -33.5 -177.5t-88 -130t-127.5 -84.5t-148.5 -48.5t-155.5 -14.5 q-83 0 -158 12.5t-148.5 45t-127 82t-86.5 130t-33 183.5zM492 408q0 -132 124 -132q61 0 91 37.5t30 98.5v200q0 61 -34 101.5t-89 40.5q-61 0 -91.5 -41t-30.5 -107v-198z" />
<glyph unicode="&#xf1;" horiz-adv-x="1294" d="M94 0v1106h418v-143h4q131 167 356 167q47 0 93 -10t91.5 -34t79.5 -59t55 -89t21 -121v-817h-426v649q0 162 -135 162q-54 0 -92.5 -48.5t-38.5 -135.5v-627h-426zM250 1223q20 123 80 200.5t172 77.5q60 0 172 -31.5t172 -31.5q38 0 59 21.5t41 68.5l139 -33 q-37 -274 -239 -274q-60 0 -174 30.5t-174 30.5q-45 0 -65 -19t-38 -71z" />
<glyph unicode="&#xf2;" d="M61 428v225q0 98 31 179t83.5 135.5t123.5 91.5t148.5 54t160.5 17t159.5 -14t151 -48.5t128.5 -86.5t87 -134t33 -185v-232q0 -98 -33.5 -177.5t-88 -130t-127.5 -84.5t-148.5 -48.5t-155.5 -14.5q-83 0 -158 12.5t-148.5 45t-127 82t-86.5 130t-33 183.5zM262 1561h316 l165 -349h-200zM492 408q0 -132 124 -132q61 0 91 37.5t30 98.5v274q0 61 -34 101t-89 40q-61 0 -91.5 -40.5t-30.5 -106.5v-272z" />
<glyph unicode="&#xf3;" d="M61 428v225q0 98 31 179t83.5 135.5t123.5 91.5t148.5 54t160.5 17t159.5 -14t151 -48.5t128.5 -86.5t87 -134t33 -185v-232q0 -98 -33.5 -177.5t-88 -130t-127.5 -84.5t-148.5 -48.5t-155.5 -14.5q-83 0 -158 12.5t-148.5 45t-127 82t-86.5 130t-33 183.5zM492 408 q0 -132 124 -132q61 0 91 37.5t30 98.5v274q0 61 -34 101t-89 40q-61 0 -91.5 -40.5t-30.5 -106.5v-272zM502 1212l166 349h315l-281 -349h-200z" />
<glyph unicode="&#xf4;" d="M61 428v225q0 98 31 179t83.5 135.5t123.5 91.5t148.5 54t160.5 17t159.5 -14t151 -48.5t128.5 -86.5t87 -134t33 -185v-232q0 -98 -33.5 -177.5t-88 -130t-127.5 -84.5t-148.5 -48.5t-155.5 -14.5q-83 0 -158 12.5t-148.5 45t-127 82t-86.5 130t-33 183.5zM279 1212 l219 365h229l223 -365h-239l-95 193l-98 -193h-239zM492 408q0 -132 124 -132q61 0 91 37.5t30 98.5v274q0 61 -34 101t-89 40q-61 0 -91.5 -40.5t-30.5 -106.5v-272z" />
<glyph unicode="&#xf5;" d="M61 428v225q0 98 31 179t83.5 135.5t123.5 91.5t148.5 54t160.5 17t159.5 -14t151 -48.5t128.5 -86.5t87 -134t33 -185v-232q0 -98 -33.5 -177.5t-88 -130t-127.5 -84.5t-148.5 -48.5t-155.5 -14.5q-83 0 -158 12.5t-148.5 45t-127 82t-86.5 130t-33 183.5zM197 1223 q20 123 80 200.5t172 77.5q60 0 172.5 -31.5t171.5 -31.5q38 0 59 21.5t41 68.5l139 -33q-37 -274 -239 -274q-59 0 -174 30.5t-175 30.5q-45 0 -64.5 -18.5t-37.5 -71.5zM492 408q0 -132 124 -132q61 0 91 37.5t30 98.5v274q0 61 -34 101t-89 40q-61 0 -91.5 -40.5 t-30.5 -106.5v-272z" />
<glyph unicode="&#xf6;" d="M61 428v225q0 98 31 179t83.5 135.5t123.5 91.5t148.5 54t160.5 17t159.5 -14t151 -48.5t128.5 -86.5t87 -134t33 -185v-232q0 -98 -33.5 -177.5t-88 -130t-127.5 -84.5t-148.5 -48.5t-155.5 -14.5q-83 0 -158 12.5t-148.5 45t-127 82t-86.5 130t-33 183.5zM248 1219v305 h280v-305h-280zM492 408q0 -132 124 -132q61 0 91 37.5t30 98.5v274q0 61 -34 101t-89 40q-61 0 -91.5 -40.5t-30.5 -106.5v-272zM700 1219v305h281v-305h-281z" />
<glyph unicode="&#xf7;" horiz-adv-x="1232" d="M113 541v213h1007v-213h-1007zM459 127v293h315v-293h-315zM459 874v293h315v-293h-315z" />
<glyph unicode="&#xf8;" d="M61 428v225q0 98 31 179t83.5 135.5t123.5 91.5t148.5 54t160.5 17q179 0 305 -59l80 109l125 -76l-82 -113q131 -121 131 -329v-232q0 -98 -33.5 -177.5t-88 -130t-127.5 -84.5t-148.5 -48.5t-155.5 -14.5q-163 0 -286 48l-86 -117l-131 71l88 121q-138 118 -138 330z M492 496l213 290q-38 41 -91 41q-61 0 -91.5 -40.5t-30.5 -106.5v-184zM532 301q28 -25 84 -25q61 0 91 37.5t30 98.5v172z" />
<glyph unicode="&#xf9;" horiz-adv-x="1318" d="M102 287v817h426v-649q0 -162 136 -162q54 0 92.5 48.5t38.5 135.5v627h426v-1104h-418v166h-4q-132 -191 -357 -191q-47 0 -93 10t-91.5 33.5t-79.5 58.5t-55 89t-21 121zM311 1561h316l166 -349h-201z" />
<glyph unicode="&#xfa;" horiz-adv-x="1318" d="M102 287v817h426v-649q0 -162 136 -162q54 0 92.5 48.5t38.5 135.5v627h426v-1104h-418v166h-4q-132 -191 -357 -191q-47 0 -93 10t-91.5 33.5t-79.5 58.5t-55 89t-21 121zM567 1212l166 349h316l-281 -349h-201z" />
<glyph unicode="&#xfb;" horiz-adv-x="1318" d="M102 287v817h426v-649q0 -162 136 -162q54 0 92.5 48.5t38.5 135.5v627h426v-1104h-418v166h-4q-132 -191 -357 -191q-47 0 -93 10t-91.5 33.5t-79.5 58.5t-55 89t-21 121zM332 1212l219 365h229l221 -365h-239l-94 193l-99 -193h-237z" />
<glyph unicode="&#xfc;" horiz-adv-x="1318" d="M102 287v817h426v-649q0 -162 136 -162q54 0 92.5 48.5t38.5 135.5v627h426v-1104h-418v166h-4q-132 -191 -357 -191q-47 0 -93 10t-91.5 33.5t-79.5 58.5t-55 89t-21 121zM307 1219v305h281v-305h-281zM760 1219v305h280v-305h-280z" />
<glyph unicode="&#xfd;" d="M18 1106h455l182 -639h9l186 639h381l-402 -1157q-33 -94 -84.5 -161.5t-115.5 -105t-132 -54.5t-145 -17q-88 0 -200 22v310q67 -17 145 -17q41 0 73 16t42 44l8 22zM567 1212l166 349h316l-281 -349h-201z" />
<glyph unicode="&#xfe;" horiz-adv-x="1273" d="M94 -377v1837h426v-493h4q59 77 145 120t173 43q185 0 277.5 -103.5t92.5 -283.5v-397q0 -159 -123.5 -266t-304.5 -107q-70 0 -143.5 31.5t-116.5 83.5h-4v-465h-426zM520 401q0 -40 13.5 -69.5t35.5 -44t43 -21t43 -6.5q54 0 92.5 36t38.5 105v273q0 70 -36.5 108.5 t-87.5 38.5q-63 0 -102.5 -35t-39.5 -133v-252z" />
<glyph unicode="&#xff;" d="M18 1106h455l182 -639h9l186 639h381l-402 -1157q-33 -94 -84.5 -161.5t-115.5 -105t-132 -54.5t-145 -17q-88 0 -200 22v310q67 -17 145 -17q41 0 73 16t42 44l8 22zM305 1219v305h281v-305h-281zM758 1219v305h280v-305h-280z" />
<glyph unicode="&#x152;" horiz-adv-x="2140" d="M66 541v374q0 116 29.5 210.5t82.5 161t128 111.5t164 66t192 21q64 0 133 -19t114 -51v45h1137v-354h-678v-201h537v-352h-537v-197h678v-356h-1137v39q-45 -29 -112 -46.5t-129 -17.5q-105 0 -192 17.5t-164.5 58.5t-131 104.5t-84 161.5t-30.5 224zM528 541 q0 -100 49 -153.5t144 -53.5q88 0 138 53t50 145v398q0 94 -55.5 145t-136.5 51q-189 0 -189 -196v-389z" />
<glyph unicode="&#x153;" horiz-adv-x="1882" d="M61 428v225q0 98 31 179t83.5 135.5t123.5 91.5t148.5 54t160.5 17q215 0 357 -88q144 88 342 88q100 0 189.5 -30t159.5 -86t111 -145.5t41 -200.5v-213h-641v-31q0 -52 36.5 -86t81.5 -45.5t95 -11.5q118 0 332 61l68 -270q-229 -99 -473 -99q-209 0 -357 80 q-142 -78 -336 -78q-83 0 -158 12.5t-148.5 45t-127 82t-86.5 130t-33 183.5zM492 408q0 -132 124 -132q61 0 91 37.5t30 98.5v274q0 61 -34 101t-89 40q-61 0 -91.5 -40.5t-30.5 -106.5v-272zM1167 674h250v43q0 60 -34.5 93.5t-92.5 33.5q-55 0 -89 -35t-34 -92v-43z" />
<glyph unicode="&#x178;" horiz-adv-x="1396" d="M-4 1460h469l254 -524l258 524h424l-473 -893v-567h-461v569zM350 1577v305h281v-305h-281zM803 1577v305h280v-305h-280z" />
<glyph unicode="&#x2c6;" horiz-adv-x="792" d="M61 1212l220 365h229l221 -365h-239l-95 193l-98 -193h-238z" />
<glyph unicode="&#x2dc;" horiz-adv-x="1040" d="M102 1223q20 123 80 200.5t172 77.5q59 0 171.5 -31.5t172.5 -31.5q38 0 60 22t41 68l139 -33q-37 -274 -240 -274q-60 0 -174 30.5t-174 30.5q-45 0 -64.5 -18.5t-37.5 -71.5z" />
<glyph unicode="&#x2000;" horiz-adv-x="1000" />
<glyph unicode="&#x2001;" horiz-adv-x="2001" />
<glyph unicode="&#x2002;" horiz-adv-x="1000" />
<glyph unicode="&#x2003;" horiz-adv-x="2001" />
<glyph unicode="&#x2004;" horiz-adv-x="667" />
<glyph unicode="&#x2005;" horiz-adv-x="500" />
<glyph unicode="&#x2006;" horiz-adv-x="333" />
<glyph unicode="&#x2007;" horiz-adv-x="333" />
<glyph unicode="&#x2008;" horiz-adv-x="250" />
<glyph unicode="&#x2009;" horiz-adv-x="400" />
<glyph unicode="&#x200a;" horiz-adv-x="111" />
<glyph unicode="&#x2010;" horiz-adv-x="741" d="M55 449v272h631v-272h-631z" />
<glyph unicode="&#x2011;" horiz-adv-x="741" d="M55 449v272h631v-272h-631z" />
<glyph unicode="&#x2012;" horiz-adv-x="741" d="M55 449v272h631v-272h-631z" />
<glyph unicode="&#x2013;" horiz-adv-x="1298" d="M51 498v225h1196v-225h-1196z" />
<glyph unicode="&#x2014;" horiz-adv-x="2322" d="M51 498v223h2220v-223h-2220z" />
<glyph unicode="&#x2018;" horiz-adv-x="659" d="M119 801v370l157 314h193l-74 -289h146v-395h-422z" />
<glyph unicode="&#x2019;" horiz-adv-x="659" d="M119 1090v395h422v-371l-158 -313h-193l74 289h-145z" />
<glyph unicode="&#x201a;" horiz-adv-x="659" d="M119 0v395h422v-370l-158 -314h-193l74 289h-145z" />
<glyph unicode="&#x201c;" horiz-adv-x="1185" d="M119 801v370l157 314h193l-74 -289h146v-395h-422zM645 801v370l158 314h192l-73 -289h145v-395h-422z" />
<glyph unicode="&#x201d;" horiz-adv-x="1185" d="M119 1090v395h422v-371l-158 -313h-193l74 289h-145zM645 1090v395h422v-371l-158 -313h-192l74 289h-146z" />
<glyph unicode="&#x201e;" horiz-adv-x="1185" d="M119 0v395h422v-370l-158 -314h-193l74 289h-145zM645 0v395h422v-370l-158 -314h-192l74 289h-146z" />
<glyph unicode="&#x2022;" horiz-adv-x="913" d="M240 750q0 91 64 154t155 63q89 0 152 -63t63 -154q0 -90 -63 -154t-152 -64q-91 0 -155 64t-64 154z" />
<glyph unicode="&#x2026;" horiz-adv-x="1740" d="M119 0v397h422v-397h-422zM659 0v397h422v-397h-422zM1200 0v397h422v-397h-422z" />
<glyph unicode="&#x202f;" horiz-adv-x="400" />
<glyph unicode="&#x2039;" horiz-adv-x="716" d="M25 528l479 449l184 -164l-307 -285l311 -286l-188 -158z" />
<glyph unicode="&#x203a;" horiz-adv-x="716" d="M25 819l188 158l479 -445l-479 -448l-184 164l307 284z" />
<glyph unicode="&#x205f;" horiz-adv-x="500" />
<glyph unicode="&#x20ac;" horiz-adv-x="1550" d="M78 477v201h170v121h-170v200h172q9 121 62.5 216t138.5 153t190 87.5t223 29.5q90 0 176.5 -16t169.5 -53.5t145 -92t100 -137.5t38 -185v-90h-430v47q0 81 -55.5 125.5t-130.5 44.5q-141 0 -162 -129h262v-200h-266v-121h266v-201h-264q8 -72 46.5 -108.5t117.5 -36.5 q75 0 130.5 44.5t55.5 125.5v47h430v-96q0 -100 -37.5 -182t-98.5 -136t-143 -91t-168 -53t-176 -16q-97 0 -182.5 16.5t-164 54.5t-136 95t-94 142.5t-43.5 193.5h-172z" />
<glyph unicode="&#x2122;" horiz-adv-x="1439" d="M90 1303v178h549v-178h-168v-478h-213v478h-168zM698 825v656h256l72 -232l70 232h256v-656h-193v324l-65 -225h-138l-65 223v-322h-193z" />
<glyph unicode="&#xe000;" horiz-adv-x="1105" d="M0 0v1106h1106v-1106h-1106z" />
<glyph unicode="&#xfb01;" horiz-adv-x="1454" d="M43 784v295h131v92q0 72 23 129t60 93t87.5 60t102 34t106.5 10h13q138 0 214 -23q7 -2 13 -4v-251q-62 8 -117 8q-34 0 -56 -19.5t-22 -52.5v-76h203v-295h-203v-784h-424v784h-131zM934 0v1104h426v-1104h-426zM934 1204v281h426v-281h-426z" />
<glyph unicode="&#xfb02;" horiz-adv-x="1558" d="M43 784v295h131v92q0 72 23 129t60 93t87.5 60t102 34t106.5 10h13q138 0 214 -23q7 -2 13 -4v-251q-62 8 -117 8q-34 0 -56 -19.5t-22 -52.5v-76h203v-295h-203v-784h-424v784h-131zM922 270v1190h428v-1057q0 -39 15 -57t65 -18q17 0 79 8v-322q-119 -39 -233 -39 q-160 0 -257 76t-97 219z" />
</font>
</defs>
</svg>
